<svg xmlns="http://www.w3.org/2000/svg" xmlns:xlink="http://www.w3.org/1999/xlink"><symbol id="icon-fb" viewBox="0 0 11 20">
<path d="M7.33333 11.5H9.95238L11 7.5H7.33333V5.5C7.33333 4.47 7.33333 3.5 9.42857 3.5H11V0.14C10.6585 0.0970001 9.36886 0 8.00695 0C5.16267 0 3.14286 1.657 3.14286 4.7V7.5H0V11.5H3.14286V20H7.33333V11.5Z"/>
</symbol><symbol id="icon-inst" viewBox="0 0 20 20">
<path d="M10 0C12.717 0 13.056 0.00999994 14.122 0.0599999C15.187 0.11 15.912 0.277 16.55 0.525C17.21 0.779 17.766 1.123 18.322 1.678C18.8305 2.1779 19.224 2.78259 19.475 3.45C19.722 4.087 19.89 4.813 19.94 5.878C19.987 6.944 20 7.283 20 10C20 12.717 19.99 13.056 19.94 14.122C19.89 15.187 19.722 15.912 19.475 16.55C19.2247 17.2178 18.8311 17.8226 18.322 18.322C17.822 18.8303 17.2173 19.2238 16.55 19.475C15.913 19.722 15.187 19.89 14.122 19.94C13.056 19.987 12.717 20 10 20C7.283 20 6.944 19.99 5.878 19.94C4.813 19.89 4.088 19.722 3.45 19.475C2.78233 19.2245 2.17753 18.8309 1.678 18.322C1.16941 17.8222 0.775931 17.2175 0.525 16.55C0.277 15.913 0.11 15.187 0.0599999 14.122C0.0129999 13.056 0 12.717 0 10C0 7.283 0.00999994 6.944 0.0599999 5.878C0.11 4.812 0.277 4.088 0.525 3.45C0.775236 2.78218 1.1688 2.17732 1.678 1.678C2.17767 1.16923 2.78243 0.775729 3.45 0.525C4.088 0.277 4.812 0.11 5.878 0.0599999C6.944 0.0129999 7.283 0 10 0ZM10 5C8.67392 5 7.40215 5.52678 6.46447 6.46447C5.52678 7.40215 5 8.67392 5 10C5 11.3261 5.52678 12.5979 6.46447 13.5355C7.40215 14.4732 8.67392 15 10 15C11.3261 15 12.5979 14.4732 13.5355 13.5355C14.4732 12.5979 15 11.3261 15 10C15 8.67392 14.4732 7.40215 13.5355 6.46447C12.5979 5.52678 11.3261 5 10 5ZM16.5 4.75C16.5 4.41848 16.3683 4.10054 16.1339 3.86612C15.8995 3.6317 15.5815 3.5 15.25 3.5C14.9185 3.5 14.6005 3.6317 14.3661 3.86612C14.1317 4.10054 14 4.41848 14 4.75C14 5.08152 14.1317 5.39946 14.3661 5.63388C14.6005 5.8683 14.9185 6 15.25 6C15.5815 6 15.8995 5.8683 16.1339 5.63388C16.3683 5.39946 16.5 5.08152 16.5 4.75ZM10 7C10.7956 7 11.5587 7.31607 12.1213 7.87868C12.6839 8.44129 13 9.20435 13 10C13 10.7956 12.6839 11.5587 12.1213 12.1213C11.5587 12.6839 10.7956 13 10 13C9.20435 13 8.44129 12.6839 7.87868 12.1213C7.31607 11.5587 7 10.7956 7 10C7 9.20435 7.31607 8.44129 7.87868 7.87868C8.44129 7.31607 9.20435 7 10 7Z"/>
</symbol><symbol id="icon-logo" viewBox="0 0 70 38"><path fill-rule="evenodd" clip-rule="evenodd" d="M.904 31.125l13.769-18.582 3.766 2.013L27.404 0l5.585 6.659 2.078-1.704 8.054 10.22 5.716-6.813 15.977 22.763L49.42 11.769l-2.338 8.13 2.143 6.426-13.769-18.97-.15 6.473 7.814 17.297-14.614-26.79 4.222 14.48-5.91-14.092-3.247 9.369.649-6.117L16.1 30.04l.974-9.291-3.377-3.716L.904 31.125z"/><path fill-rule="evenodd" clip-rule="evenodd" d="M69.441 34.031C47.641 16.428 13.71 40.63 0 31.296c15.072 13.226 50.302-9.132 69.441 2.735z"/><path fill-rule="evenodd" clip-rule="evenodd" d="M70 35.416c-17.104-10.899-42.543 4.268-55.581.756 14.128 6.856 40.43-8.336 55.581-.756z"/></symbol><symbol id="icon-tw" viewBox="0 0 16 13">
<path d="M15.9992 1.54324C15.4 1.80812 14.7645 1.98209 14.1138 2.05937C14.7996 1.64947 15.313 1.00438 15.5581 0.244297C14.9144 0.627078 14.2088 0.895338 13.4733 1.04045C12.9793 0.512227 12.3245 0.161908 11.6106 0.0439529C10.8968 -0.0740019 10.164 0.047017 9.52611 0.388195C8.88822 0.729374 8.38099 1.2716 8.08329 1.93057C7.78559 2.58954 7.71409 3.32833 7.87991 4.0321C6.57465 3.96673 5.29775 3.62777 4.13209 3.03724C2.96644 2.4467 1.93809 1.6178 1.11381 0.604331C0.822049 1.10512 0.668725 1.67441 0.669545 2.2539C0.669545 3.39126 1.24882 4.39606 2.12951 4.98435C1.60833 4.96795 1.09861 4.8273 0.642857 4.57411V4.6149C0.643014 5.37238 0.905313 6.1065 1.38528 6.69279C1.86525 7.27907 2.53335 7.68144 3.27629 7.83167C2.79248 7.96269 2.28517 7.98201 1.79278 7.88815C2.00225 8.54016 2.41052 9.11038 2.96043 9.51897C3.51034 9.92757 4.17436 10.1541 4.8595 10.1668C4.17856 10.7012 3.39888 11.0963 2.56506 11.3294C1.73123 11.5625 0.859598 11.6291 0 11.5253C1.50055 12.4897 3.24733 13.0017 5.0314 13C11.0699 13 14.3721 8.0011 14.3721 3.66579C14.3721 3.5246 14.3681 3.38184 14.3619 3.24222C15.0046 2.778 15.5593 2.20293 16 1.54403L15.9992 1.54324Z"/>
</symbol></svg>